<?xml version="1.0" standalone="no"?>
<!DOCTYPE svg PUBLIC "-//W3C//DTD SVG 20010904//EN"
 "http://www.w3.org/TR/2001/REC-SVG-20010904/DTD/svg10.dtd">
<svg version="1.0" xmlns="http://www.w3.org/2000/svg"
 width="480.000000pt" height="480.000000pt" viewBox="0 0 480.000000 480.000000"
 preserveAspectRatio="xMidYMid meet">
<metadata>
Created by potrace 1.14, written by Peter Selinger 2001-2017
</metadata>
<g transform="translate(0.000000,480.000000) scale(0.100000,-0.100000)"
fill="#000000" stroke="none">
<path d="M1860 4637 c-14 -6 -31 -18 -39 -25 -12 -12 -12 -15 0 -23 8 -5 17
-9 21 -9 4 0 17 -19 29 -42 16 -30 23 -68 27 -129 5 -92 0 -129 -21 -151 -42
-43 -137 -207 -163 -282 -25 -71 -35 -178 -22 -241 6 -33 51 -115 62 -115 13
-1 -60 -28 -90 -34 -12 -2 -30 -9 -40 -15 -11 -5 -50 -24 -89 -42 -59 -27 -90
-52 -197 -159 l-127 -128 -503 -207 c-277 -114 -519 -213 -538 -222 -19 -8
-64 -27 -100 -42 l-65 -27 0 -399 c0 -220 3 -420 8 -445 30 -183 143 -366 295
-479 l53 -39 -58 -44 c-140 -106 -256 -323 -278 -518 -2 -19 -4 -37 -5 -40 -5
-12 -1 -84 5 -109 4 -14 9 -37 11 -49 16 -83 110 -217 198 -284 91 -68 227
-127 336 -144 19 -3 38 -8 41 -10 12 -7 115 -18 181 -18 38 -1 68 -3 68 -6 0
-14 252 5 470 36 19 2 52 7 74 9 21 3 64 9 95 14 43 8 156 8 156 1 0 -4 192
-10 367 -12 109 -2 198 -5 198 -8 0 -3 30 -6 68 -6 37 -1 114 -5 172 -8 126
-9 230 -14 448 -20 90 -3 167 -8 172 -11 5 -3 11 -1 15 5 4 6 13 7 23 2 18 -9
743 -8 852 1 149 13 222 23 310 41 14 3 39 9 55 12 17 3 36 11 44 18 8 6 15 9
15 6 3 -8 88 32 136 64 78 52 160 170 210 301 13 32 16 45 35 135 9 40 6 172
-4 210 -23 87 -35 117 -74 181 -43 72 -144 183 -215 235 l-42 31 37 28 c114
84 213 223 264 371 l34 99 3 428 c2 264 0 427 -6 427 -8 0 -736 298 -807 330
-28 12 -471 195 -535 220 -29 12 -72 29 -94 39 -23 10 -73 31 -112 46 l-71 27
-6 112 c-6 129 -35 224 -107 341 -106 174 -209 278 -485 493 -33 25 -219 144
-270 172 -33 18 -64 36 -70 40 -20 13 -119 52 -165 64 -63 17 -159 18 -190 3z
m1902 -1695 c46 -21 155 -72 243 -112 88 -40 164 -76 168 -80 4 -4 -96 -7
-222 -7 -127 0 -231 3 -231 6 -5 121 -9 154 -28 190 -12 23 -20 41 -17 41 2 0
41 -17 87 -38z m-2666 -64 c1 -51 4 -103 7 -114 l5 -22 -254 1 c-140 0 -254 1
-254 3 0 3 128 64 134 64 3 0 165 75 306 142 19 9 40 17 45 17 6 1 10 -37 11
-91z m104 -332 c0 -3 -26 -10 -57 -16 -32 -6 -65 -14 -73 -17 -8 -3 -20 -7
-27 -9 -17 -3 -157 -67 -163 -74 -3 -4 -16 -14 -30 -23 -22 -15 -61 -17 -352
-17 -181 0 -329 3 -329 8 -4 22 -5 138 -2 145 4 7 1033 10 1033 3z m3415 -76
l0 -75 -308 -3 c-283 -2 -311 -1 -335 16 -66 44 -141 68 -242 79 -30 3 -56 7
-58 8 -2 1 0 14 4 29 l6 26 467 -2 466 -3 0 -75z m-3942 -258 c-3 -9 -10 -22
-15 -28 -5 -7 -17 -36 -28 -65 l-18 -54 -224 0 -223 0 -1 70 c0 39 1 75 3 81
3 9 77 12 258 12 233 0 253 -1 248 -16z m3944 -66 l-3 -81 -205 -3 -206 -2
-18 57 c-10 32 -24 67 -32 79 -7 11 -10 23 -7 27 4 4 112 6 240 5 l233 -1 -2
-81z m-4036 -261 c2 -44 10 -114 14 -132 4 -17 1 -23 -12 -24 -107 -4 -347 1
-354 8 -11 11 -49 121 -49 142 0 14 24 16 200 16 127 0 200 -4 201 -10z m4021
-6 c-2 -8 -6 -24 -8 -36 -2 -12 -13 -42 -24 -67 -22 -52 -4 -48 -200 -48 -44
0 -93 1 -109 1 l-29 1 0 77 c0 43 4 80 8 83 5 3 89 5 187 5 149 -1 177 -4 175
-16z m-3897 -353 c19 -22 35 -42 35 -45 0 -4 -29 -7 -65 -8 -35 -1 -83 -7
-105 -13 -38 -10 -45 -9 -103 24 -57 33 -107 69 -107 78 0 2 70 3 155 3 l155
0 35 -39z m3715 34 c0 -4 -65 -54 -95 -72 -6 -4 -36 5 -66 20 -30 14 -63 29
-74 33 -19 6 -19 7 2 15 23 9 233 13 233 4z"/>
</g>
</svg>
